<svg width="1600" height="900" viewBox="0 0 1600 900" fill="none" xmlns="http://www.w3.org/2000/svg">
  <defs>
    <linearGradient id="bg" x1="214" y1="95" x2="1368" y2="812" gradientUnits="userSpaceOnUse">
      <stop stop-color="#F5EEE5"/>
      <stop offset="0.54" stop-color="#F3F0EA"/>
      <stop offset="1" stop-color="#D7E3EF"/>
    </linearGradient>
    <linearGradient id="desk" x1="173" y1="705" x2="1385" y2="849" gradientUnits="userSpaceOnUse">
      <stop stop-color="#E2D2C0"/>
      <stop offset="1" stop-color="#C7B39E"/>
    </linearGradient>
    <linearGradient id="laptop" x1="353" y1="248" x2="865" y2="676" gradientUnits="userSpaceOnUse">
      <stop stop-color="#111B2D"/>
      <stop offset="1" stop-color="#233047"/>
    </linearGradient>
    <linearGradient id="screen" x1="412" y1="272" x2="827" y2="616" gradientUnits="userSpaceOnUse">
      <stop stop-color="#FFFDFB"/>
      <stop offset="1" stop-color="#EEF3F8"/>
    </linearGradient>
    <linearGradient id="resume" x1="507" y1="291" x2="680" y2="605" gradientUnits="userSpaceOnUse">
      <stop stop-color="#FFFFFF"/>
      <stop offset="1" stop-color="#F7FAFC"/>
    </linearGradient>
    <linearGradient id="panel" x1="861" y1="252" x2="1215" y2="596" gradientUnits="userSpaceOnUse">
      <stop stop-color="#E5FFFF" stop-opacity="0.42"/>
      <stop offset="1" stop-color="#D8F3FF" stop-opacity="0.18"/>
    </linearGradient>
    <filter id="shadow" x="278" y="203" width="623" height="533" filterUnits="userSpaceOnUse" color-interpolation-filters="sRGB">
      <feFlood flood-opacity="0" result="BackgroundImageFix"/>
      <feColorMatrix in="SourceAlpha" type="matrix" values="0 0 0 0 0 0 0 0 0 0 0 0 0 0 0 0 0 0 127 0" result="hardAlpha"/>
      <feOffset dy="26"/>
      <feGaussianBlur stdDeviation="28"/>
      <feColorMatrix type="matrix" values="0 0 0 0 0.0784314 0 0 0 0 0.129412 0 0 0 0 0.2 0 0 0 0.18 0"/>
      <feBlend mode="normal" in2="BackgroundImageFix" result="effect1_dropShadow_1_1"/>
      <feBlend mode="normal" in="SourceGraphic" in2="effect1_dropShadow_1_1" result="shape"/>
    </filter>
    <filter id="panelGlow" x="812" y="201" width="460" height="435" filterUnits="userSpaceOnUse" color-interpolation-filters="sRGB">
      <feFlood flood-opacity="0" result="BackgroundImageFix"/>
      <feBlend mode="normal" in="SourceGraphic" in2="BackgroundImageFix" result="shape"/>
      <feGaussianBlur stdDeviation="14" result="effect1_foregroundBlur_1_1"/>
    </filter>
  </defs>

  <rect width="1600" height="900" fill="url(#bg)"/>
  <rect y="675" width="1600" height="225" fill="url(#desk)"/>
  <rect x="1048" y="98" width="334" height="532" rx="167" fill="#E7D4C2" fill-opacity="0.46"/>
  <rect x="1180" y="120" width="182" height="506" rx="91" fill="#FFF6EC" fill-opacity="0.62"/>
  <rect x="167" y="138" width="16" height="350" rx="8" fill="#BED0C8" fill-opacity="0.4"/>
  <ellipse cx="1368" cy="138" rx="144" ry="76" fill="#FFF5E8" fill-opacity="0.78"/>

  <g opacity="0.96">
    <path d="M1260 0H1600V468C1494 430 1398 360 1310 260C1273 218 1257 163 1260 0Z" fill="#D7C3B0" fill-opacity="0.25"/>
    <path d="M1600 0V382C1515 351 1446 309 1392 256C1336 201 1306 116 1301 0H1600Z" fill="#FFF7EE" fill-opacity="0.68"/>
  </g>

  <rect x="102" y="739" width="126" height="121" rx="18" fill="#FBFCFD"/>
  <ellipse cx="166" cy="739" rx="81" ry="16" fill="#DDE3E9"/>
  <ellipse cx="166" cy="739" rx="74" ry="10" fill="#FFFFFF"/>
  <path d="M223 781C223 820 197 850 165 850C133 850 109 820 109 781C109 742 133 732 165 732C197 732 223 742 223 781Z" fill="#FBFCFD"/>

  <path d="M334 687H893L964 758H404L334 687Z" fill="#C8D0D9"/>
  <path d="M403 758H963C966 758 968 760 968 763V780C968 793 957 804 944 804H422C408 804 397 793 397 780V763C397 760 400 758 403 758Z" fill="#B2BBC5"/>
  <path d="M553 760H815C816 760 818 761 818 763V769C818 775 813 780 807 780H560C554 780 549 775 549 769V763C549 761 551 760 553 760Z" fill="#A0ACB9"/>

  <g filter="url(#shadow)">
    <rect x="334" y="232" width="510" height="449" rx="26" fill="url(#laptop)"/>
    <rect x="364" y="258" width="450" height="378" rx="18" fill="url(#screen)"/>
    <rect x="570" y="270" width="38" height="8" rx="4" fill="#D8DFE8"/>

    <g transform="rotate(-7 578 450)">
      <rect x="469" y="298" width="210" height="313" rx="8" fill="url(#resume)" stroke="#D8E0E8" stroke-width="2"/>
      <rect x="496" y="328" width="118" height="12" rx="6" fill="#101828"/>
      <rect x="496" y="348" width="72" height="8" rx="4" fill="#B4C0CC"/>
      <rect x="496" y="388" width="46" height="50" rx="6" fill="#E8EEF5"/>
      <circle cx="519" cy="405" r="15" fill="#C7D2DE"/>
      <rect x="552" y="393" width="94" height="6" rx="3" fill="#D7DEE7"/>
      <rect x="552" y="407" width="83" height="6" rx="3" fill="#D7DEE7"/>
      <rect x="552" y="421" width="97" height="6" rx="3" fill="#D7DEE7"/>
      <rect x="496" y="454" width="66" height="9" rx="4.5" fill="#192132"/>
      <rect x="496" y="473" width="150" height="6" rx="3" fill="#D7DEE7"/>
      <rect x="496" y="486" width="158" height="6" rx="3" fill="#D7DEE7"/>
      <rect x="496" y="499" width="142" height="6" rx="3" fill="#D7DEE7"/>
      <rect x="496" y="525" width="58" height="9" rx="4.5" fill="#192132"/>
      <rect x="496" y="544" width="151" height="6" rx="3" fill="#D7DEE7"/>
      <rect x="496" y="557" width="165" height="6" rx="3" fill="#D7DEE7"/>
      <rect x="496" y="570" width="137" height="6" rx="3" fill="#D7DEE7"/>
      <rect x="667" y="328" width="12" height="230" rx="6" fill="#E1E7EE"/>
      <rect x="691" y="328" width="115" height="9" rx="4.5" fill="#7B1E24"/>
      <rect x="691" y="348" width="94" height="6" rx="3" fill="#D7DEE7"/>
      <rect x="691" y="382" width="99" height="9" rx="4.5" fill="#192132"/>
      <rect x="691" y="401" width="118" height="6" rx="3" fill="#D7DEE7"/>
      <rect x="691" y="414" width="102" height="6" rx="3" fill="#D7DEE7"/>
      <rect x="691" y="427" width="111" height="6" rx="3" fill="#D7DEE7"/>
      <rect x="691" y="459" width="84" height="9" rx="4.5" fill="#192132"/>
      <rect x="691" y="478" width="116" height="6" rx="3" fill="#D7DEE7"/>
      <rect x="691" y="491" width="97" height="6" rx="3" fill="#D7DEE7"/>
      <rect x="691" y="522" width="109" height="9" rx="4.5" fill="#192132"/>
      <rect x="691" y="541" width="119" height="6" rx="3" fill="#D7DEE7"/>
      <rect x="691" y="554" width="102" height="6" rx="3" fill="#D7DEE7"/>
    </g>
  </g>

  <g opacity="0.9">
    <path d="M128 365C140 341 162 324 188 319" stroke="white" stroke-width="4" stroke-linecap="round"/>
    <path d="M128 365C137 389 155 407 178 417" stroke="white" stroke-width="4" stroke-linecap="round"/>
    <circle cx="180" cy="365" r="24" stroke="white" stroke-width="4"/>
    <circle cx="180" cy="356" r="8" stroke="white" stroke-width="4"/>
    <path d="M166 378C172 371 188 371 194 378" stroke="white" stroke-width="4" stroke-linecap="round"/>
    <text x="130" y="458" fill="white" font-size="28" font-family="Arial, Helvetica, sans-serif" font-weight="500">KEYWORDS</text>

    <rect x="126" y="508" width="44" height="56" rx="6" stroke="white" stroke-width="4"/>
    <path d="M160 508V528H170" stroke="white" stroke-width="4" stroke-linecap="round" stroke-linejoin="round"/>
    <text x="126" y="610" fill="white" font-size="28" font-family="Arial, Helvetica, sans-serif" font-weight="500">PDF</text>

    <rect x="126" y="642" width="46" height="56" rx="6" stroke="white" stroke-width="4"/>
    <path d="M158 642V658H172" stroke="white" stroke-width="4" stroke-linecap="round" stroke-linejoin="round"/>
  </g>

  <g filter="url(#panelGlow)">
    <path d="M856 255H1187V301" stroke="#C8FFFF" stroke-width="8" stroke-linecap="round" stroke-linejoin="round"/>
    <path d="M856 255V596H901" stroke="#C8FFFF" stroke-width="8" stroke-linecap="round" stroke-linejoin="round"/>
    <path d="M1187 255H1221V315" stroke="#C8FFFF" stroke-width="8" stroke-linecap="round" stroke-linejoin="round"/>
    <path d="M1185 596H1221V536" stroke="#C8FFFF" stroke-width="8" stroke-linecap="round" stroke-linejoin="round"/>
    <rect x="878" y="275" width="326" height="300" rx="20" fill="url(#panel)" stroke="#E2FFFF" stroke-width="2"/>
  </g>

  <text x="930" y="320" fill="#FFFFFF" font-size="50" font-family="Arial, Helvetica, sans-serif" font-weight="500" letter-spacing="1">ATS SCANNING</text>
  <rect x="938" y="382" width="76" height="76" rx="12" stroke="#FFFFFF" stroke-width="4"/>
  <path d="M952 420L968 437L998 401" stroke="#FFFFFF" stroke-width="6" stroke-linecap="round" stroke-linejoin="round"/>
  <path d="M1040 420L1056 437L1086 401" stroke="#FFFFFF" stroke-width="6" stroke-linecap="round" stroke-linejoin="round"/>
  <rect x="1031" y="389" width="76" height="62" rx="10" stroke="#FFFFFF" stroke-width="4"/>
  <line x1="955" y1="470" x2="955" y2="486" stroke="#FFFFFF" stroke-width="4" stroke-linecap="round"/>
  <line x1="997" y1="470" x2="997" y2="486" stroke="#FFFFFF" stroke-width="4" stroke-linecap="round"/>
  <line x1="1048" y1="463" x2="1048" y2="479" stroke="#FFFFFF" stroke-width="4" stroke-linecap="round"/>
  <line x1="1090" y1="463" x2="1090" y2="479" stroke="#FFFFFF" stroke-width="4" stroke-linecap="round"/>

  <text x="1128" y="403" fill="#FFFFFF" font-size="22" font-family="Arial, Helvetica, sans-serif">KEYWORDS 324</text>
  <text x="1128" y="434" fill="#FFFFFF" font-size="21" font-family="Arial, Helvetica, sans-serif" fill-opacity="0.88">KEYWORDS DETECTED</text>

  <text x="943" y="517" fill="#FFFFFF" font-size="24" font-family="Arial, Helvetica, sans-serif">324 / 1,000s</text>
  <path d="M1123 518H1162V502L1180 494V474L1198 458V424" stroke="#FFFFFF" stroke-width="4" stroke-linecap="round" stroke-linejoin="round"/>
  <path d="M1118 518H1208" stroke="#FFFFFF" stroke-width="4" stroke-linecap="round"/>
  <rect x="1134" y="501" width="18" height="17" fill="#FFFFFF"/>
  <rect x="1161" y="488" width="18" height="30" fill="#FFFFFF"/>
  <rect x="1188" y="468" width="18" height="50" fill="#FFFFFF"/>

  <path d="M946 567H1011V645H946V567Z" stroke="#FFFFFF" stroke-width="4"/>
  <path d="M991 567V589H1011" stroke="#FFFFFF" stroke-width="4" stroke-linecap="round" stroke-linejoin="round"/>
  <text x="958" y="619" fill="#FFFFFF" font-size="30" font-family="Arial, Helvetica, sans-serif" font-weight="700">PDF</text>

  <path d="M1096 565L1111 580L1136 552" stroke="#FFFFFF" stroke-width="5" stroke-linecap="round" stroke-linejoin="round"/>
  <rect x="1080" y="546" width="34" height="34" rx="7" stroke="#FFFFFF" stroke-width="3"/>
  <text x="1126" y="572" fill="#FFFFFF" font-size="22" font-family="Arial, Helvetica, sans-serif">Resume</text>

  <path d="M1096 622L1111 637L1136 609" stroke="#FFFFFF" stroke-width="5" stroke-linecap="round" stroke-linejoin="round"/>
  <rect x="1080" y="603" width="34" height="34" rx="7" stroke="#FFFFFF" stroke-width="3"/>
  <text x="1126" y="629" fill="#FFFFFF" font-size="22" font-family="Arial, Helvetica, sans-serif">Score</text>

  <path d="M1242 565L1257 580L1282 552" stroke="#FFFFFF" stroke-width="5" stroke-linecap="round" stroke-linejoin="round"/>
  <rect x="1226" y="546" width="34" height="34" rx="7" stroke="#FFFFFF" stroke-width="3"/>
  <text x="1272" y="572" fill="#FFFFFF" font-size="22" font-family="Arial, Helvetica, sans-serif">Export</text>

  <path d="M1242 622L1257 637L1282 609" stroke="#FFFFFF" stroke-width="5" stroke-linecap="round" stroke-linejoin="round"/>
  <rect x="1226" y="603" width="34" height="34" rx="7" stroke="#FFFFFF" stroke-width="3"/>
  <text x="1272" y="629" fill="#FFFFFF" font-size="22" font-family="Arial, Helvetica, sans-serif">Explore</text>
</svg>
